<svg width="48" height="26" viewBox="0 0 48 26" fill="none" xmlns="http://www.w3.org/2000/svg">
<path d="M42.4028 5.53254C40.8252 5.21482 39.1907 6.17029 38.6043 11.2315C38.5687 11.534 38.5402 11.84 38.5188 12.1449C37.682 11.1065 36.5175 10.241 35.8563 9.90223C35.8423 9.89529 35.8308 9.88429 35.8233 9.87073C35.8157 9.85716 35.8126 9.84167 35.8143 9.82631C35.816 9.81095 35.8224 9.79646 35.8326 9.78477C35.8429 9.77308 35.8566 9.76476 35.8718 9.7609C37.771 9.26565 40.2068 7.08488 38.2221 5.38302C36.7561 4.12502 34.6123 5.79418 33.8134 8.73301C33.7849 8.84047 33.7256 8.865 33.6603 8.84981C33.595 8.83463 33.5665 8.7809 33.5867 8.68395C34.0449 6.46464 34.4627 4.52801 32.6252 4.20913C30.5503 3.84936 29.3561 5.78484 28.9454 8.6127C28.251 13.3363 29.0831 17.1395 31.3954 17.2189C33.6508 17.2984 33.7992 15.0136 33.3446 12.6191C33.3303 12.5432 33.3552 12.493 33.4087 12.4731C33.4237 12.4678 33.4396 12.4656 33.4556 12.4665C33.4715 12.4674 33.4871 12.4715 33.5014 12.4785C33.5157 12.4855 33.5284 12.4952 33.5388 12.5071C33.5491 12.519 33.557 12.5329 33.5618 12.5479C34.7286 15.6175 37.1086 17.4198 38.7776 15.9352C38.7966 15.9189 38.8132 15.9014 38.831 15.8839C39.0803 16.5765 39.4768 17.0683 40.0703 17.2283C41.7796 17.6955 43.0201 15.9434 43.7002 11.972C44.3377 8.25411 43.9816 5.85141 42.4099 5.53487" fill="#E9E2FD"/>
<path d="M25.7095 4.4988C23.9219 4.4112 22.8037 6.50903 22.8025 11.1462C22.8018 11.7508 22.845 12.3547 22.9319 12.9532C21.7282 12.5175 19.9892 12.778 18.9506 13.0513C18.9224 13.0595 18.8921 13.0564 18.8662 13.0426C18.8404 13.0288 18.8212 13.0055 18.8129 12.9777C18.8045 12.95 18.8077 12.9201 18.8217 12.8947C18.8358 12.8693 18.8595 12.8504 18.8877 12.8422C20.1744 12.4649 22.4036 11.8225 22.057 10.3893C21.6807 8.83346 20.0581 9.04839 18.5565 9.36493C18.5307 9.37308 18.5026 9.37091 18.4784 9.35889C18.4542 9.34687 18.4358 9.32597 18.4271 9.30069C18.4205 9.2877 18.4168 9.27349 18.4162 9.259C18.4156 9.2445 18.4182 9.23005 18.4237 9.21659C18.4292 9.20313 18.4375 9.19097 18.4481 9.1809C18.4587 9.17083 18.4714 9.16309 18.4853 9.15818C19.7672 8.84164 21.8208 7.91771 21.8968 6.33616C21.9704 4.79316 20.3643 3.15087 17.6686 4.49997C15.3717 5.65051 14.238 9.04138 14.4838 11.131C14.4921 11.1953 14.5004 11.2607 14.5099 11.3284C13.6149 10.5704 12.6617 9.98867 12.213 9.78893C12.201 9.78258 12.1907 9.77346 12.1831 9.76235C12.1755 9.75124 12.1707 9.73848 12.1692 9.72516C12.1677 9.71184 12.1695 9.69836 12.1744 9.68587C12.1793 9.67338 12.1873 9.66225 12.1975 9.65344C12.7649 9.13365 15.9509 6.4261 13.6991 4.70906C11.9791 3.39616 9.48991 5.10619 9.48991 8.69797C9.48962 8.7128 9.48628 8.72742 9.48009 8.74094C9.4739 8.75447 9.46499 8.76662 9.45389 8.77666C9.4428 8.7867 9.42975 8.79443 9.41554 8.79937C9.40133 8.80432 9.38625 8.80638 9.3712 8.80543C9.34476 8.80676 9.31881 8.79806 9.29871 8.7811C9.2786 8.76414 9.26589 8.74024 9.26318 8.71432C9.06613 5.99158 8.22928 4.78498 6.36682 5.00223C4.09365 5.26855 3.73754 8.90939 4.14707 12.2547C4.43908 14.641 5.47654 17.4771 7.85536 17.2119C10.6888 16.8966 9.72256 13.2487 9.63591 12.0188C9.63366 12.0041 9.63469 11.9891 9.63893 11.9749C9.64318 11.9607 9.65054 11.9475 9.66049 11.9364C9.67045 11.9253 9.68275 11.9164 9.69655 11.9105C9.71035 11.9045 9.72531 11.9016 9.74037 11.9019C9.76862 11.8993 9.7968 11.9076 9.81896 11.925C9.84111 11.9424 9.8555 11.9677 9.85907 11.9954C10.0217 13.7183 12.1952 17.8976 15.393 15.996C15.6902 15.8278 15.9527 15.6063 16.167 15.343C17.1047 16.5391 18.4912 17.421 20.4712 17.268C22.3633 17.122 23.3699 16.4667 23.8281 15.7227C24.2412 16.4165 24.7777 16.8814 25.4092 16.9807C27.4414 17.2984 28.4326 15.3524 28.4516 10.7619C28.4694 6.55692 27.864 4.59809 25.7107 4.49179" fill="#E9E2FD"/>
<path d="M30.0399 15.6853C29.5119 15.6842 28.9958 15.8392 28.5584 16.1303C28.0832 15.8153 27.523 15.6477 26.95 15.6491C26.8598 15.6491 26.7708 15.6491 26.6829 15.6619C26.3523 15.2443 25.9071 14.9285 25.4 14.7517C24.8929 14.5749 24.345 14.5445 23.8209 14.6641C23.2968 14.7836 22.8184 15.0482 22.4422 15.4266C22.0659 15.805 21.8075 16.2814 21.6974 16.7996C21.6083 16.7914 21.5181 16.7868 21.4279 16.7868C21.3757 16.7868 21.3235 16.7868 21.2712 16.7868C21.1069 16.3376 20.8205 15.9415 20.4431 15.6416C20.0657 15.3417 19.6119 15.1495 19.1311 15.0859C18.6503 15.0224 18.1611 15.0899 17.7166 15.2812C17.2722 15.4725 16.8897 15.7802 16.6107 16.1707C16.3318 16.5613 16.1672 17.0196 16.1348 17.4959C16.1025 17.9722 16.2036 18.4481 16.4272 18.8717C16.6509 19.2952 16.9884 19.6503 17.403 19.8981C17.8176 20.1459 18.2934 20.2769 18.7785 20.2769C18.8307 20.2769 18.8817 20.2769 18.934 20.2769C19.1245 20.7967 19.4779 21.2434 19.9432 21.5528C20.4084 21.8622 20.9615 22.0182 21.5227 21.9983C22.0838 21.9784 22.6241 21.7837 23.0655 21.4422C23.5069 21.1007 23.8268 20.6301 23.9789 20.0982C24.1377 20.1249 24.2985 20.1385 24.4596 20.1391C24.513 20.1391 24.5664 20.1391 24.6187 20.1391C24.8521 20.4595 25.151 20.7284 25.4962 20.9285C25.8414 21.1286 26.2253 21.2556 26.6232 21.3012C27.0212 21.3469 27.4245 21.3102 27.8072 21.1935C28.1899 21.0769 28.5436 20.8828 28.8457 20.6238C29.2027 20.8023 29.5961 20.8987 29.9964 20.9061C30.3967 20.9134 30.7935 20.8313 31.157 20.666C31.5204 20.5007 31.8411 20.2566 32.0949 19.9518C32.3486 19.6471 32.5289 19.2897 32.6222 18.9065C32.7154 18.5234 32.7192 18.1244 32.6332 17.7396C32.5472 17.3548 32.3738 16.9942 32.1258 16.6849C31.8779 16.3755 31.5619 16.1255 31.2016 15.9536C30.8413 15.7817 30.4462 15.6923 30.0458 15.6923" fill="#DF188F"/>
<path d="M22.3942 17.6757C22.3926 17.7375 22.3781 17.7983 22.3514 17.8544L21.7033 19.1719C21.6799 19.2334 21.638 19.2864 21.5832 19.3239C21.5283 19.3613 21.4632 19.3814 21.3965 19.3814C21.3297 19.3814 21.2646 19.3613 21.2097 19.3239C21.1549 19.2864 21.113 19.2334 21.0896 19.1719L20.7525 18.4524L20.4142 19.1673C20.3911 19.2289 20.3493 19.2821 20.2946 19.3196C20.2398 19.3572 20.1747 19.3773 20.1079 19.3773C20.0412 19.3773 19.976 19.3572 19.9213 19.3196C19.8665 19.2821 19.8248 19.2289 19.8017 19.1673L19.1536 17.8497C19.1266 17.7937 19.1116 17.7329 19.1096 17.671C19.1096 17.6289 19.1181 17.5871 19.1345 17.5482C19.1509 17.5093 19.175 17.474 19.2053 17.4443C19.2356 17.4145 19.2716 17.391 19.3112 17.375C19.3508 17.3589 19.3933 17.3508 19.4361 17.3509C19.4963 17.3499 19.5556 17.3657 19.6071 17.3965C19.6586 17.4273 19.7001 17.4718 19.7269 17.525L20.1234 18.3286L20.4261 17.6056C20.4433 17.5333 20.4849 17.4689 20.5441 17.4228C20.6032 17.3767 20.6764 17.3516 20.7519 17.3516C20.8273 17.3516 20.9006 17.3767 20.9597 17.4228C21.0189 17.4689 21.0604 17.5333 21.0777 17.6056L21.3804 18.3286L21.7781 17.525C21.8047 17.472 21.8461 17.4276 21.8973 17.3968C21.9486 17.366 22.0077 17.3501 22.0677 17.3509C22.1106 17.3506 22.1531 17.3587 22.1927 17.3746C22.2324 17.3906 22.2685 17.4141 22.2988 17.4439C22.3292 17.4737 22.3532 17.5091 22.3696 17.5481C22.386 17.587 22.3943 17.6288 22.3942 17.671" fill="#FAF9FF"/>
<path d="M24.6258 18.3683C24.6336 18.5777 24.5776 18.7846 24.4651 18.9625C24.3525 19.1403 24.1885 19.2811 23.9942 19.3666C23.7998 19.4521 23.5838 19.4785 23.3741 19.4424C23.1643 19.4063 22.9703 19.3093 22.817 19.1639C22.6636 19.0186 22.5579 18.8314 22.5134 18.6265C22.4689 18.4216 22.4877 18.2083 22.5672 18.014C22.6468 17.8196 22.7836 17.6531 22.96 17.5358C23.1365 17.4185 23.3445 17.3557 23.5574 17.3556C23.6954 17.3522 23.8327 17.3758 23.9613 17.425C24.0899 17.4742 24.2073 17.548 24.3067 17.6422C24.4061 17.7364 24.4855 17.8491 24.5403 17.9738C24.595 18.0984 24.6241 18.2325 24.6258 18.3683ZM23.1764 18.3683C23.1717 18.42 23.1782 18.472 23.1953 18.521C23.2124 18.5701 23.2398 18.615 23.2758 18.6529C23.3117 18.6908 23.3554 18.7208 23.4039 18.741C23.4525 18.7612 23.5048 18.7711 23.5574 18.7701C23.6604 18.7624 23.7565 18.7167 23.8267 18.6422C23.8968 18.5677 23.9358 18.4699 23.9358 18.3683C23.9358 18.2667 23.8968 18.1689 23.8267 18.0944C23.7565 18.0199 23.6604 17.9742 23.5574 17.9665C23.5048 17.9657 23.4526 17.9757 23.4042 17.9959C23.3557 18.0162 23.3121 18.0462 23.2762 18.0841C23.2403 18.122 23.2129 18.1668 23.1957 18.2158C23.1785 18.2647 23.1719 18.3167 23.1764 18.3683Z" fill="#FAF9FF"/>
<path d="M26.3149 17.6686C26.3166 17.7518 26.2851 17.8324 26.2272 17.893C26.1693 17.9537 26.0896 17.9897 26.0051 17.9934C25.7618 18.0284 25.649 18.1744 25.649 18.4536V19.0446C25.649 19.1329 25.6134 19.2176 25.5499 19.28C25.4865 19.3424 25.4004 19.3775 25.3107 19.3775C25.221 19.3775 25.1349 19.3424 25.0715 19.28C25.008 19.2176 24.9724 19.1329 24.9724 19.0446V17.692C24.9705 17.6483 24.9776 17.6047 24.9933 17.5638C25.0091 17.5229 25.0331 17.4855 25.064 17.4541C25.0949 17.4226 25.1319 17.3976 25.1729 17.3807C25.2139 17.3638 25.2579 17.3552 25.3024 17.3556C25.372 17.3543 25.4402 17.3756 25.4964 17.4161C25.5525 17.4566 25.5937 17.5141 25.6134 17.5799C25.6617 17.5168 25.7238 17.4653 25.7951 17.4291C25.8664 17.3929 25.9451 17.373 26.0253 17.3708C26.065 17.3694 26.1047 17.3762 26.1416 17.3908C26.1785 17.4054 26.2119 17.4274 26.2396 17.4555C26.2673 17.4836 26.2888 17.517 26.3026 17.5537C26.3164 17.5904 26.3222 17.6296 26.3197 17.6686" fill="#FAF9FF"/>
<path d="M26.563 19.0446V17.0589C26.5603 17.0136 26.567 16.9683 26.5827 16.9256C26.5985 16.883 26.6229 16.8439 26.6545 16.8109C26.6862 16.7779 26.7243 16.7516 26.7667 16.7336C26.809 16.7156 26.8546 16.7063 26.9007 16.7063C26.9468 16.7063 26.9925 16.7156 27.0348 16.7336C27.0771 16.7516 27.1153 16.7779 27.1469 16.8109C27.1786 16.8439 27.203 16.883 27.2187 16.9256C27.2345 16.9683 27.2412 17.0136 27.2384 17.0589V19.0446C27.2412 19.0899 27.2345 19.1353 27.2187 19.1779C27.203 19.2206 27.1786 19.2596 27.1469 19.2926C27.1153 19.3257 27.0771 19.352 27.0348 19.37C26.9925 19.3879 26.9468 19.3972 26.9007 19.3972C26.8546 19.3972 26.809 19.3879 26.7667 19.37C26.7243 19.352 26.6862 19.3257 26.6545 19.2926C26.6229 19.2596 26.5985 19.2206 26.5827 19.1779C26.567 19.1353 26.5603 19.0899 26.563 19.0446Z" fill="#FAF9FF"/>
<path d="M29.698 17.0624V19.0481C29.7001 19.0914 29.6932 19.1346 29.6777 19.1752C29.6622 19.2157 29.6384 19.2528 29.6078 19.2839C29.5772 19.3151 29.5405 19.3398 29.4999 19.3565C29.4593 19.3732 29.4156 19.3815 29.3715 19.381C29.3026 19.3822 29.235 19.3614 29.1792 19.3216C29.1233 19.2817 29.0821 19.2251 29.0617 19.1602C28.9938 19.2346 28.9098 19.293 28.8159 19.3312C28.7221 19.3694 28.6207 19.3864 28.5193 19.381C27.9697 19.381 27.5768 18.964 27.5768 18.3718C27.5768 17.7796 27.9697 17.3556 28.5193 17.3556C28.7043 17.3468 28.8853 17.4107 29.0226 17.5331V17.0659C29.0198 17.0206 29.0265 16.9753 29.0423 16.9326C29.058 16.89 29.0824 16.8509 29.1141 16.8179C29.1457 16.7849 29.1839 16.7586 29.2262 16.7406C29.2685 16.7226 29.3142 16.7133 29.3603 16.7133C29.4064 16.7133 29.452 16.7226 29.4943 16.7406C29.5367 16.7586 29.5748 16.7849 29.6065 16.8179C29.6381 16.8509 29.6625 16.89 29.6783 16.9326C29.694 16.9753 29.7007 17.0206 29.698 17.0659M29.0344 18.3753C29.0289 18.3018 29.0016 18.2314 28.956 18.1729C28.9103 18.1144 28.8483 18.0703 28.7775 18.046C28.7067 18.0217 28.6303 18.0183 28.5576 18.0362C28.4848 18.0541 28.419 18.0925 28.3682 18.1468C28.3174 18.201 28.2838 18.2686 28.2715 18.3414C28.2592 18.4142 28.2688 18.4889 28.2991 18.5563C28.3294 18.6238 28.3791 18.6811 28.442 18.7211C28.505 18.7612 28.5784 18.7823 28.6534 18.7818C28.7064 18.7823 28.7588 18.7719 28.8075 18.7513C28.8561 18.7306 28.8998 18.7001 28.9357 18.6618C28.9716 18.6235 28.9989 18.5782 29.0159 18.5289C29.0329 18.4795 29.0392 18.4272 29.0344 18.3753Z" fill="#FAF9FF"/>
</svg>
